<svg id="Layer_1" width="20px" enable-background="new 0 0 128 128" viewBox="0 0 128 128" xmlns="http://www.w3.org/2000/svg"><g><path d="m127.6 62.9c-1.2-1.4-28.8-35.4-63.6-35.4s-62.5 34-63.6 35.4c-.5.6-.5 1.6 0 2.2 1.2 1.4 28.8 35.4 63.6 35.4s62.5-34 63.6-35.4c.5-.6.5-1.6 0-2.2zm-63.6 34.1c-29.7 0-54.9-27.2-60-33 5.1-5.8 30.2-33 60-33 29.7 0 54.9 27.2 60 33-5.1 5.8-30.3 33-60 33z"/><path d="m64 39.3c-13.7 0-24.8 11.1-24.8 24.8s11.1 24.7 24.8 24.7 24.8-11.1 24.8-24.8c-.1-13.7-11.1-24.7-24.8-24.7zm0 46c-11.7 0-21.3-9.5-21.3-21.3s9.6-21.2 21.3-21.2 21.3 9.5 21.3 21.2c-.1 11.7-9.6 21.2-21.3 21.3z"/><path d="m77.9 61.8c-1.5 1.2-3.3 1.9-5.2 1.9-4.6 0-8.3-3.7-8.3-8.3 0-1.9.7-3.8 1.9-5.2.6-.8.5-1.8-.3-2.5-.4-.4-1.1-.4-1.9-.4-9.3 0-16.8 7.5-16.8 16.7s7.4 16.8 16.7 16.8 16.8-7.5 16.8-16.8c0-.8 0-1.9-.9-2.4-.7-.3-1.5-.3-2 .2zm-13.9 15.5c-7.3 0-13.2-5.9-13.2-13.3 0-6.4 4.6-11.9 10.9-13-2.5 6 .4 12.9 6.5 15.4 2.8 1.2 6 1.2 8.9 0-1.2 6.2-6.7 10.8-13.1 10.9z"/></g></svg>